<?xml version="1.0" encoding="utf-8"?>
<!-- Generator: Adobe Illustrator 27.5.0, SVG Export Plug-In . SVG Version: 6.00 Build 0)  -->
<svg version="1.1" baseProfile="basic" id="Calque_1"
	 xmlns="http://www.w3.org/2000/svg" xmlns:xlink="http://www.w3.org/1999/xlink" x="0px" y="0px" viewBox="0 0 1920 661.7"
	 xml:space="preserve">
<style type="text/css">
	.st0{fill:#642681;}
	.st1{fill:#585856;}
</style>
<g>
	<g>
		<path class="st0" d="M360.8,634.6c-25.2-8.6-48.3-18.5-70.1-29.6c0.4-0.2,0.8-0.5,1.1-0.7c72.3-46.9,104.5-90.5,114.8-155.6
			c2.2-14,1.6-25.5-1.6-29.3c-0.2-0.2-0.4-0.5-0.6-0.6c-0.5,1.5-1,3.5-1.5,5.3c-6.1,23.5-22.4,86.1-129.9,152.3
			c-5.4,3.4-11,6.5-16.5,9.4c-34.9-21.8-65.7-47.7-93.5-78.9c-24-26.9-43.3-52.1-58.7-75.3c22.9-21.7,54-43.1,94.7-60.9
			c77.5-34.1,121.2-36.4,132.5-38.3c5.4-0.9,14.3-2.4,15.6-4.2c-1.1-1-10.2-7.3-52.1-6.1c-45.3,1.2-102.3,11.4-167.7,47.6
			c-15.8,8.8-30.2,18.4-43.1,28.7c-34.4-63.1-37.1-109-24.4-133.3c18-34.8,121.6-41.4,181.8-42.3c129.6,1.4,160.6,29.6,163.9,53
			c3,21.4-7.9,37.1-14.4,46.4c-1,1.4-2.1,3.1-2.9,4.4c3.7-0.2,9.9-2.6,16.9-8c5.9-4.6,25.2-21.9,26.4-52.7
			c0.5-12.5-4.4-24.2-14.3-34.6c-23.6-24.7-73.9-41.4-138.1-46.5c25.6-18.6,42.3-48.7,42.3-82.6C321.6,45.8,275.7,0,219.4,0
			S117.2,45.8,117.2,102.2c0,36.3,19.1,68.2,47.7,86.3c-71.7,9.1-137.7,29.9-155,63.2c-29.4,56.8,13.2,129.2,44.2,175.4
			c-19.3,21.9-32.6,45.9-38.8,70.9c-10,40.1-3.8,79.3,16.8,107.6c23.1,31.6,62.6,49.1,111.2,49.3c37.9,0.2,76.8-10.7,118.2-32.8
			c41.4,20.2,86.5,33.1,133.2,33.1c15.4,0,19.6-1.1,19.6-5.2c-1.6-2.9-17.9-6.6-27.7-8.8C377.8,639.3,368.8,637.3,360.8,634.6z
			 M65,584.3c-13.8-18.9-17.5-46.5-10.3-75.8c3.5-13.9,11-29.8,22.9-46.4c29.2,43.7,81.2,98.6,145.7,138.7
			C156.7,625.9,91.7,620.9,65,584.3z"/>
		<g>
			<path class="st1" d="M681.9,242.7c-7.6-6.8-16.8-12-27.7-15.6c-10.9-3.6-23-5.4-36.4-5.4H527v230.5h40.2v-74.1h45.9
				c12.8,0,24.8-1.7,36-5.1c11.2-3.4,21-8.4,29.4-15c8.4-6.6,15-14.8,19.8-24.7c4.8-9.9,7.3-21.3,7.3-34.3c0-11.9-2-22.5-6.1-31.9
				C695.3,257.7,689.5,249.5,681.9,242.7z M650.9,330.1c-8.9,7.6-21.1,11.4-36.5,11.4h-47.2v-83.3h47.2c15.2,0,27.3,3.5,36.3,10.4
				c9,7,13.5,17.4,13.5,31.2C664.3,312.4,659.9,322.5,650.9,330.1z"/>
			<path class="st1" d="M877.1,355.5c6.7-4.1,12.5-9,17.3-14.8c4.8-5.8,8.6-12.5,11.4-20.1c2.7-7.6,4.1-16.2,4.1-25.8
				c0-11.2-2-21.3-5.9-30.5c-4-9.1-9.6-16.8-17-23.1c-7.4-6.3-16.4-11.1-27-14.5c-10.7-3.4-22.6-5.1-35.7-5.1H721.5v230.5h40.2
				v-80.3h50.9l56.8,80.3h47.7l-62.2-87.3C863,362.7,870.4,359.6,877.1,355.5z M761.6,335.9v-77.7h59.1c15.2,0,27,3.3,35.3,9.8
				c8.4,6.5,12.6,16.1,12.6,28.9c0,11.9-4.3,21.4-12.9,28.4c-8.6,7.1-20.2,10.6-34.7,10.6H761.6z"/>
			<path class="st1" d="M1296.8,410.8c-10.1,5.4-22.2,8.1-36.2,8.1c-11,0-21.1-2.1-30.5-6.4c-9.3-4.3-17.4-10.1-24.2-17.6
				c-6.8-7.5-12.1-16.2-15.8-26.2c-3.7-10-5.6-20.7-5.6-32.1c0-11.4,1.9-22.1,5.6-31.9c3.7-9.9,9-18.5,15.8-25.9
				c6.8-7.3,14.9-13.2,24.2-17.5c9.3-4.3,19.5-6.4,30.5-6.4c13.2,0,24.9,2.6,35.2,7.9c10.3,5.3,20.1,12.2,29.3,20.7l26-30
				c-5.5-5.3-11.3-10.1-17.5-14.5c-6.1-4.4-12.8-8.2-20.1-11.4c-7.2-3.2-15.2-5.7-23.9-7.4c-8.7-1.8-18.3-2.6-28.8-2.6
				c-17.6,0-33.6,3.1-48.1,9.4c-14.5,6.3-27,14.8-37.5,25.7c-9.1,9.4-16.3,20.1-21.9,32.2c-5.7-12.2-13-23-22.1-32.4
				c-10.5-10.7-23.2-19.3-37.9-25.5c-14.7-6.3-31-9.4-48.7-9.4c-17.8,0-34,3.2-48.7,9.6c-14.7,6.4-27.4,15-38.2,25.8
				c-10.8,10.9-19.1,23.5-25,38c-5.9,14.5-8.9,29.9-8.9,46.1c0,16.3,3,31.6,8.9,46.1c5.9,14.5,14.2,27.1,24.7,37.9
				c10.5,10.8,23.2,19.3,37.9,25.5c14.7,6.3,31,9.4,48.7,9.4c17.8,0,34-3.2,48.7-9.5c14.7-6.4,27.4-15,38.2-25.9
				c9.2-9.3,16.5-20,22.2-31.9c5.7,12.5,13.1,23.5,22.3,32.9c10.4,10.7,22.8,19.1,37,25.2c14.3,6.1,29.8,9.2,46.8,9.2
				c10.8,0,20.6-0.9,29.5-2.8c8.9-1.9,17.1-4.6,24.5-8.2c7.5-3.6,14.4-7.9,20.9-12.8c6.5-4.9,12.7-10.6,18.6-17l-26-26.3
				C1316.9,398.2,1306.9,405.5,1296.8,410.8z M1116.6,369c-3.8,10-9.2,18.7-16,26c-6.8,7.4-15,13.2-24.5,17.5
				c-9.5,4.3-20,6.4-31.4,6.4c-11.4,0-22-2.2-31.6-6.6c-9.7-4.4-17.9-10.3-24.9-17.8c-6.9-7.5-12.3-16.2-16.1-26.2
				c-3.8-10-5.8-20.6-5.8-31.8c0-11.2,1.9-21.8,5.8-31.8c3.8-10,9.2-18.7,16-26c6.8-7.3,15-13.2,24.5-17.5c9.5-4.3,20-6.4,31.4-6.4
				c11.4,0,21.9,2.2,31.6,6.6c9.7,4.4,17.9,10.3,24.9,17.8c6.9,7.5,12.3,16.2,16.1,26.2c3.8,10,5.8,20.6,5.8,31.8
				C1122.4,348.4,1120.5,359,1116.6,369z"/>
			<rect x="1376.5" y="221.7" class="st1" width="40.2" height="230.5"/>
			<polygon class="st1" points="1547.6,398.8 1478.1,221.7 1433.3,221.7 1529.2,453.8 1564.7,453.8 1660.5,221.7 1616.8,221.7 			
				"/>
			<rect x="1676.9" y="221.7" class="st1" width="40.2" height="230.5"/>
			<path class="st1" d="M1911.6,361.1c-3.2-7.1-7.9-13.4-14-18.8c-6.2-5.4-13.9-9.9-23.3-13.7c-9.4-3.7-20.1-7.1-32.2-10.2
				c-11-2.6-20.1-5.2-27.2-7.6c-7.2-2.4-12.8-5.1-16.8-7.9c-4.1-2.9-6.9-5.9-8.4-9.2c-1.5-3.3-2.3-7.2-2.3-11.9
				c0-7.7,3.3-14.2,9.9-19.6c6.6-5.4,15.8-8.1,27.7-8.1c10.5,0,21,2,31.3,6.1c10.3,4.1,20.7,9.9,31.3,17.6l21.7-30.6
				c-11.9-9.4-24.5-16.6-38-21.6c-13.5-4.9-28.7-7.4-45.6-7.4c-11.4,0-21.9,1.6-31.6,4.8c-9.6,3.2-17.9,7.7-24.8,13.7
				c-6.9,5.9-12.2,13-16.2,21.2c-3.9,8.2-5.9,17.4-5.9,27.5c0,10.8,1.7,19.9,5.1,27.3c3.4,7.5,8.4,13.8,14.9,19.1
				c6.5,5.3,14.5,9.7,24.1,13.2c9.6,3.5,20.5,6.7,32.8,9.5c10.8,2.6,19.5,5.2,26.2,7.6c6.7,2.4,12,5,15.8,7.7
				c3.9,2.7,6.5,5.8,7.9,9.1c1.4,3.3,2.1,7,2.1,11.2c0,9-3.7,16.1-11,21.4c-7.4,5.3-17.3,7.9-29.8,7.9c-14.5,0-27.4-2.6-38.9-7.7
				c-11.4-5.2-22.7-12.6-33.9-22.2l-24.4,29c13.8,12.5,28.9,21.8,45.1,27.8c16.2,6,33.3,9.1,51,9.1c12.1,0,23.1-1.5,33.2-4.6
				c10.1-3.1,18.7-7.6,25.9-13.5c7.2-5.9,12.8-13.2,16.8-21.7c4-8.6,6-18.3,6-29.3C1916.4,376.6,1914.8,368.2,1911.6,361.1z"/>
			<g>
				<path class="st0" d="M527,86.8h52.1v14.1h-37v15h32.6v14.1h-32.6v27.2h-15V86.8z"/>
				<path class="st0" d="M588,122.2V122c0-20,15.3-36.4,36.4-36.4c21.1,0,36.2,16.2,36.2,36.2v0.2c0,20-15.3,36.4-36.4,36.4
					C603.2,158.3,588,142.2,588,122.2z M645,122.2V122c0-12.1-8.6-22.1-20.7-22.1c-12.1,0-20.5,9.8-20.5,21.9v0.2
					c0,12.1,8.6,22.1,20.7,22.1C636.6,144.1,645,134.2,645,122.2z"/>
				<path class="st0" d="M674.1,86.8h13.9l32,43.3V86.8h14.8v70.3H722l-33.1-44.7v44.7h-14.8V86.8z"/>
				<path class="st0" d="M751.2,86.8h26.7c21.5,0,36.3,15.2,36.3,35v0.2c0,19.8-14.8,35.2-36.3,35.2h-26.7V86.8z M777.8,143.2
					c12.3,0,20.6-8.5,20.6-21V122c0-12.5-8.3-21.2-20.6-21.2h-11.6v42.4H777.8z"/>
				<path class="st0" d="M846.1,86.3H860l29.3,70.8h-15.7l-6.2-15.8h-28.9l-6.2,15.8h-15.3L846.1,86.3z M861.9,127.7l-9.1-22.8
					l-9.1,22.8H861.9z"/>
				<path class="st0" d="M906.9,101.1h-20.8V86.8h56.6v14.3H922v56h-15V101.1z"/>
				<path class="st0" d="M955,86.8h15v70.3h-15V86.8z"/>
				<path class="st0" d="M984.1,122.2V122c0-20,15.3-36.4,36.4-36.4c21.1,0,36.2,16.2,36.2,36.2v0.2c0,20-15.3,36.4-36.4,36.4
					C999.2,158.3,984.1,142.2,984.1,122.2z M1041,122.2V122c0-12.1-8.6-22.1-20.7-22.1c-12.1,0-20.5,9.8-20.5,21.9v0.2
					c0,12.1,8.6,22.1,20.7,22.1C1032.6,144.1,1041,134.2,1041,122.2z"/>
				<path class="st0" d="M1070.1,86.8h13.9l32,43.3V86.8h14.8v70.3H1118l-33.1-44.7v44.7h-14.8V86.8z"/>
				<path class="st0" d="M1176.5,86.8h26.7c21.5,0,36.3,15.2,36.3,35v0.2c0,19.8-14.8,35.2-36.3,35.2h-26.7V86.8z M1203.2,143.2
					c12.3,0,20.6-8.5,20.6-21V122c0-12.5-8.3-21.2-20.6-21.2h-11.6v42.4H1203.2z"/>
				<path class="st0" d="M1247.7,112.8c6.7-0.7,10.1-4.2,9.6-9.9h-6.1V86.8h15.8v13.6c0,13.3-6.4,18.6-18.1,18.8L1247.7,112.8z"/>
				<path class="st0" d="M1280.8,86.8h51.6v13.8h-36.6v14.3h32.2v13.8h-32.2v14.8h37.1v13.8h-52V86.8z"/>
				<path class="st0" d="M1346.2,86.8h13.9l32,43.3V86.8h14.8v70.3h-12.8l-33.1-44.7v44.7h-14.8V86.8z"/>
				<path class="st0" d="M1439.2,101.1h-20.8V86.8h56.6v14.3h-20.8v56h-15V101.1z"/>
				<path class="st0" d="M1486.6,86.8h31.2c8.7,0,15.4,2.5,19.9,7.1c3.8,3.9,5.9,9.4,5.9,16.1v0.2c0,11.3-6,18.5-14.6,21.8
					l16.7,25.1h-17.6l-14.6-22.5h-11.8v22.5h-15V86.8z M1516.9,121c7.3,0,11.5-4,11.5-9.9v-0.2c0-6.6-4.5-10-11.8-10h-14.9V121
					H1516.9z"/>
				<path class="st0" d="M1557.2,86.8h51.6v13.8h-36.6v14.3h32.2v13.8h-32.2v14.8h37.1v13.8h-52V86.8z"/>
				<path class="st0" d="M1622.6,86.8h27.9c16.3,0,26.2,9.9,26.2,24.3v0.2c0,16.3-12.3,24.7-27.6,24.7h-11.4v21.1h-15V86.8z
					 M1649.6,122.3c7.5,0,11.9-4.6,11.9-10.6v-0.2c0-6.9-4.7-10.6-12.2-10.6h-11.6v21.5H1649.6z"/>
				<path class="st0" d="M1687.8,86.8h31.2c8.7,0,15.4,2.5,19.9,7.1c3.8,3.9,5.9,9.4,5.9,16.1v0.2c0,11.3-6,18.5-14.6,21.8
					l16.7,25.1h-17.6l-14.6-22.5h-11.8v22.5h-15V86.8z M1718.1,121c7.3,0,11.5-4,11.5-9.9v-0.2c0-6.6-4.5-10-11.8-10h-14.9V121
					H1718.1z"/>
				<path class="st0" d="M1759.1,86.8h15v70.3h-15V86.8z"/>
				<path class="st0" d="M1786.5,146.9l8.9-10.9c6.2,5.2,12.6,8.5,20.4,8.5c6.2,0,9.9-2.5,9.9-6.6v-0.2c0-3.9-2.3-5.9-13.8-8.9
					c-13.8-3.6-22.7-7.5-22.7-21.5V107c0-12.8,10-21.2,23.9-21.2c10,0,18.5,3.2,25.4,8.9l-7.8,11.7c-6.1-4.3-12-6.9-17.8-6.9
					s-8.8,2.7-8.8,6.1v0.2c0,4.6,2.9,6.1,14.7,9.2c13.9,3.7,21.7,8.8,21.7,21.1v0.2c0,14-10.4,21.8-25.1,21.8
					C1805.2,158.1,1794.7,154.4,1786.5,146.9z"/>
				<path class="st0" d="M1853.7,86.8h51.6v13.8h-36.6v14.3h32.2v13.8h-32.2v14.8h37.1v13.8h-52V86.8z"/>
			</g>
			<rect x="527" y="514.6" class="st0" width="1384.9" height="11"/>
			<g>
				<path class="st0" d="M527,597.5H561v7.2h-25.9v11.9h23v7.2h-23v12.3h26.2v7.2H527V597.5z"/>
				<path class="st0" d="M570.9,597.5h7.5l24.5,31.6v-31.6h7.9v45.8H604l-25.2-32.6v32.6h-7.9V597.5z"/>
				<path class="st1" d="M662.2,568.4h12.2l40.1,51.8v-51.8h12.9v74.9h-11L675.1,590v53.3h-12.9V568.4z"/>
				<path class="st1" d="M743.4,606.1v-0.2c0-21.1,16.3-38.7,39.3-38.7c23,0,39.1,17.4,39.1,38.5v0.2c0,21.1-16.3,38.7-39.3,38.7
					C759.5,644.6,743.4,627.1,743.4,606.1z M807.9,606.1v-0.2c0-14.6-10.6-26.6-25.5-26.6c-14.9,0-25.3,11.9-25.3,26.4v0.2
					c0,14.5,10.6,26.6,25.5,26.6C797.5,632.5,807.9,620.6,807.9,606.1z"/>
				<path class="st1" d="M836.5,611.5v-43.1h13.2V611c0,13.9,7.2,21.4,18.9,21.4c11.7,0,18.8-7.1,18.8-20.9v-43.1h13.2v42.5
					c0,22.4-12.6,33.6-32.2,33.6C849,644.5,836.5,633.2,836.5,611.5z"/>
				<path class="st1" d="M912.3,568.4h14.5l22.6,57.6l22.5-57.6h14.2L955,643.8h-11.6L912.3,568.4z"/>
				<path class="st1" d="M999,568.4h55.5v11.8h-42.4v19.5h37.6v11.8h-37.6v20.1h42.9v11.8H999V568.4z"/>
				<path class="st1" d="M1070.8,568.4h13.2v62.9h39.4v12h-52.5V568.4z"/>
				<path class="st1" d="M1137,568.4h13.2v62.9h39.4v12H1137V568.4z"/>
				<path class="st1" d="M1203.3,568.4h55.5v11.8h-42.4v19.5h37.6v11.8h-37.6v20.1h42.9v11.8h-56.1V568.4z"/>
				<path class="st1" d="M1333.7,567.9h12.2l33,75.4h-13.9l-7.6-18.1h-35.4l-7.7,18.1h-13.5L1333.7,567.9z M1352.5,613.6l-12.9-30
					l-12.8,30H1352.5z"/>
				<path class="st1" d="M1445.6,637.5c-6.3,4.5-14,7.1-22.8,7.1c-23,0-39-17.4-39-38.5v-0.2c0-21.1,16.3-38.7,39.3-38.7
					c23,0,39,17.4,39,38.5v0.2c0,8.5-2.7,16.5-7.6,23l8.6,7.3l-8.5,9.4L1445.6,637.5z M1435.9,628.9l-12.8-10.9l8.5-9.6l12.9,11.8
					c2.6-4,3.9-8.8,3.9-14v-0.2c0-14.6-10.6-26.6-25.5-26.6s-25.2,11.9-25.2,26.4v0.2c0,14.5,10.6,26.6,25.5,26.6
					C1428,632.5,1432.4,631.1,1435.9,628.9z"/>
				<path class="st1" d="M1476.9,611.5v-43.1h13.2V611c0,13.9,7.2,21.4,18.9,21.4c11.7,0,18.8-7.1,18.8-20.9v-43.1h13.2v42.5
					c0,22.4-12.6,33.6-32.2,33.6C1489.3,644.5,1476.9,633.2,1476.9,611.5z"/>
				<path class="st1" d="M1559.9,568.4h13.2v74.9h-13.2V568.4z"/>
				<path class="st1" d="M1611.5,580.6h-23.8v-12.2h60.8v12.2h-23.7v62.7h-13.3V580.6z"/>
				<path class="st1" d="M1679.3,567.9h12.2l33,75.4h-13.9l-7.6-18.1h-35.4l-7.7,18.1h-13.5L1679.3,567.9z M1698.2,613.6l-12.9-30
					l-12.8,30H1698.2z"/>
				<path class="st1" d="M1738.1,568.4h13.2v74.9h-13.2V568.4z"/>
				<path class="st1" d="M1771.3,568.4h12.2l40.1,51.8v-51.8h12.9v74.9h-11l-41.3-53.3v53.3h-12.9V568.4z"/>
				<path class="st1" d="M1855.9,568.4h55.5v11.8H1869v19.5h37.6v11.8H1869v20.1h42.9v11.8h-56.1V568.4z"/>
			</g>
		</g>
	</g>
</g>
</svg>
